Coordinates
version=1
nRows=6
nColumns=63
inDegrees=yes

Units are S.I. units (second, meters, Newtons, ...)
If the header above contains a line with 'inDegrees', this indicates whether rotational values are in degrees (yes) or radians (no).

endheader
time	pelvis_tilt	pelvis_list	pelvis_rotation	pelvis_tx	pelvis_ty	pelvis_tz	hip_flexion_r	hip_adduction_r	hip_rotation_r	knee_angle_r	knee_angle_r_beta	ankle_angle_r	subtalar_angle_r	mtp_angle_r	hip_flexion_l	hip_adduction_l	hip_rotation_l	knee_angle_l	knee_angle_l_beta	ankle_angle_l	subtalar_angle_l	mtp_angle_l	L5_S1_Flex_Ext	L5_S1_Lat_Bending	L5_S1_axial_rotation	L4_L5_Flex_Ext	L4_L5_Lat_Bending	L4_L5_axial_rotation	L3_L4_Flex_Ext	L3_L4_Lat_Bending	L3_L4_axial_rotation	L2_L3_Flex_Ext	L2_L3_Lat_Bending	L2_L3_axial_rotation	L1_L2_Flex_Ext	L1_L2_Lat_Bending	L1_L2_axial_rotation	L1_T12_Flex_Ext	L1_T12_Lat_Bending	L1_T12_axial_rotation	Abs_r3	Abs_r2	Abs_r1	Abs_t1	Abs_t2	neck_flexion	neck_bending	neck_rotation	arm_flex_r	arm_add_r	arm_rot_r	elbow_flex_r	pro_sup_r	wrist_flex_r	wrist_dev_r	arm_flex_l	arm_add_l	arm_rot_l	elbow_flex_l	pro_sup_l	wrist_flex_l	wrist_dev_l
      8.28300000	    -44.34297363	      1.52638075	     -6.15694328	     -0.25725224	      1.04017632	      0.26404976	    107.39445085	     -5.05973044	      3.30874224	    117.25795906	      2.04653746	     19.68617197	      9.79491550	      0.00000000	     80.68851866	    -11.36922000	     -6.01496609	     40.96129389	      0.71490944	      0.55576232	     14.28562025	      0.00000000	     -0.03961414	     -0.13914088	      1.01119117	     -0.07356742	     -0.18505738	      1.07439062	     -0.06508207	     -0.33830715	      1.07439062	     -0.04527500	     -0.33830715	      0.88479227	     -0.03678569	     -0.28373609	      0.82159283	     -0.02263552	     -0.21552923	      0.75839338	     -0.28295986	     -1.57398952	      5.62394193	      0.00000000	      0.00000000	      0.00000000	      0.00000000	      0.00000000	     73.94813489	    -15.90296156	     27.26770179	     38.69388406	     34.44476360	      0.00000000	      5.00000014	     74.84313449	    -10.98588906	     25.20796863	     35.96272815	     51.68437093	      0.00000000	      5.00000014
      8.29200000	    -44.33519990	      1.61682386	     -6.72778374	     -0.25717648	      1.04042617	      0.26505481	    109.00707815	     -4.93413234	      2.73771213	    117.83995319	      2.05669517	     20.62114909	      9.95142100	      0.00000000	     79.10501361	    -11.79461639	     -6.05569688	     39.91442284	      0.69663810	     -0.14506529	     14.10775166	      0.00000000	     -0.04042047	     -0.14128918	      1.10070020	     -0.07506485	     -0.18791461	      1.16949396	     -0.06640679	     -0.34353052	      1.16949396	     -0.04619655	     -0.34353052	      0.96311267	     -0.03753445	     -0.28811690	      0.89431891	     -0.02309626	     -0.21885695	      0.82552515	     -0.28871936	     -1.59829151	      6.12176429	      0.00000000	      0.00000000	      0.00000000	      0.00000000	      0.00000000	     74.00270170	    -15.72419564	     27.34758858	     38.57987674	     34.44477898	      0.00000000	      5.00000014	     74.80692683	    -11.08115802	     25.26424123	     35.89058025	     51.70090195	      0.00000000	      5.00000014
      8.30000000	    -44.34657327	      1.99808651	     -7.23136579	     -0.25724464	      1.04081736	      0.26616808	    110.56852058	     -4.73538597	      2.47745460	    117.99579002	      2.05941504	     21.73819509	     10.55394280	      0.00000000	     77.67735850	    -12.16468588	     -6.82862373	     39.33959138	      0.68660540	     -1.09915031	     13.31823787	      0.00000000	     -0.03984803	     -0.18694721	      1.17637235	     -0.07400177	     -0.24863978	      1.24989563	     -0.06546632	     -0.45454344	      1.24989563	     -0.04554231	     -0.45454344	      1.02932581	     -0.03700288	     -0.38122274	      0.95580254	     -0.02276916	     -0.28958122	      0.88227927	     -0.28463047	     -2.11478418	      6.54263012	      0.00000000	      0.00000000	      0.00000000	      0.00000000	      0.00000000	     74.04019122	    -15.54269993	     27.49189467	     38.41467430	     34.45266550	      0.00000000	      5.00000014	     74.93635892	    -11.19520748	     25.39833457	     35.76056364	     51.73474450	      0.00000000	      5.00000014
      8.30800000	    -44.41630355	      1.99526024	     -7.37263439	     -0.25730112	      1.04128463	      0.26648870	    111.96984595	     -4.97558307	      1.86349909	    117.76086721	      2.05531486	     22.03937207	     10.55605717	      0.00000000	     76.67080876	    -12.26729003	     -6.81513204	     39.43656280	      0.68829787	     -1.33401897	     13.10823827	      0.00000000	     -0.04126066	     -0.18051600	      1.19115705	     -0.07662517	     -0.24008628	      1.26560436	     -0.06778714	     -0.43890660	      1.26560436	     -0.04715681	     -0.43890660	      1.04226242	     -0.03831465	     -0.36810823	      0.96781510	     -0.02357634	     -0.27961928	      0.89336779	     -0.29472077	     -2.04203310	      6.62485816	      0.00000000	      0.00000000	      0.00000000	      0.00000000	      0.00000000	     74.11375857	    -15.43313239	     27.50334761	     38.46422911	     34.46915328	      0.00000000	      5.00000014	     74.93822168	    -11.23515314	     25.39604012	     35.73869008	     51.72574839	      0.00000000	      5.00000014
      8.31700000	    -44.57179738	      1.97198228	     -8.07535860	     -0.25775066	      1.04236911	      0.26783945	    113.09990866	     -4.60877127	      0.87539407	    116.84275890	      2.03929085	     22.66137612	     11.08640791	      0.00000000	     75.80374447	    -13.07352261	     -7.66226697	     39.68706964	      0.69267004	     -2.43817543	     11.68055794	      0.00000000	     -0.04065603	     -0.18165555	      1.30228013	     -0.07550231	     -0.24160188	      1.38367264	     -0.06679379	     -0.44167731	      1.38367264	     -0.04646577	     -0.44167731	      1.13949512	     -0.03775319	     -0.37043200	      1.05810261	     -0.02323085	     -0.28138445	      0.97671010	     -0.29040195	     -2.05492392	      7.24289142	      0.00000000	      0.00000000	      0.00000000	      0.00000000	      0.00000000	     74.26534561	    -15.23172171	     27.51881764	     38.11087192	     34.47290940	      0.00000000	      5.00000014	     75.12486168	    -11.25516314	     25.43587842	     35.61859983	     51.73447810	      0.00000000	      5.00000014
      8.32500000	    -44.74588281	      1.87443520	     -8.33777898	     -0.25816126	      1.04329175	      0.26845245	    114.09285985	     -4.66411571	      0.03045910	    115.60586369	      2.01770296	     22.84357719	     11.61736526	      0.00000000	     75.40429494	    -13.51155987	     -8.26599423	     40.89762548	      0.71379822	     -2.84217846	     10.10919956	      0.00000000	     -0.04067405	     -0.17365349	      1.34285581	     -0.07553578	     -0.23095914	      1.42678430	     -0.06682340	     -0.42222110	      1.42678430	     -0.04648637	     -0.42222110	      1.17499883	     -0.03776993	     -0.35411420	      1.09107034	     -0.02324115	     -0.26898926	      1.00714186	     -0.29053069	     -1.96440302	      7.46856114	      0.00000000	      0.00000000	      0.00000000	      0.00000000	      0.00000000	     74.36378615	    -15.17546269	     27.49442334	     38.09751147	     34.47115878	      0.00000000	      5.00000014	     75.29937809	    -11.23156587	     25.48703820	     35.55898543	     51.74819585	      0.00000000	      5.00000014
